# File created by Blade
# Date/Time:  Thu Jan 22 18:06:27 2015
# Frame Rate: 120.000 fps
#------------------------------------------------------
:FULLY-SPECIFIED
:DEGREES
3966
root -7.024558 32.497128 -3.526650 5.005272 -9.944803 -4.111599
RightUpLeg -2.731326 13.564882 11.814928
RightLeg 3.238843 -0.000000 -0.000000
RightFoot -8.178066 -8.201048 -8.563738
RightToeBase -3.139337 -0.000000 0.000000
LeftUpLeg -14.503879 4.839290 7.443773
LeftLeg 33.538202 -0.000000 -0.000000
LeftFoot -27.074387 7.213586 -14.229669
LeftToeBase 2.089608 -0.000000 -0.000000
Spine -7.108581 -2.333340 0.232556
RightShoulder -20.166027 -22.228943 -3.900061
RightArm 21.172102 -12.219832 81.212877
RightForeArm -5.424065 -0.000000 19.348150
RightHand 8.894012 -0.000000 1.548637
RightHandThumb1 -24.326973 -0.000000 -32.862282
LeftShoulder -20.464207 5.216576 33.142097
LeftArm 4.665195 -40.353685 -48.091628
LeftForeArm 2.720877 -0.000000 43.231252
LeftHand -0.177683 0.000000 36.152700
LeftHandThumb1 -26.253704 0.000000 33.147579
Head 6.448897 7.227538 14.622517
3967
root -7.022168 32.497184 -3.521886 4.997270 -9.948346 -4.110724
RightUpLeg -2.715949 13.569816 11.808191
RightLeg 3.241919 -0.000000 -0.000000
RightFoot -8.127441 -8.196874 -8.637102
RightToeBase -3.218501 -0.000000 0.000000
LeftUpLeg -14.487337 4.821834 7.440555
LeftLeg 33.548315 -0.000000 -0.000000
LeftFoot -27.125426 7.179634 -14.444585
LeftToeBase 2.513054 -0.000000 -0.000000
Spine -7.119441 -2.323089 0.246800
RightShoulder -20.163622 -22.184496 -3.893523
RightArm 21.121632 -12.137518 81.205133
RightForeArm -5.621275 0.000000 19.449088
RightHand 8.773336 0.000000 1.606537
RightHandThumb1 -24.326973 -0.000000 -32.862282
LeftShoulder -20.469039 5.250808 33.117470
LeftArm 4.674047 -40.354931 -48.095221
LeftForeArm 2.708489 -0.000000 43.238270
LeftHand -0.209458 -0.000000 36.223886
LeftHandThumb1 -26.253704 0.000000 33.147579
Head 6.490528 7.224428 14.582692
3968
root -7.020986 32.496740 -3.514417 4.975585 -9.937696 -4.112543
RightUpLeg -2.662144 13.539907 11.815029
RightLeg 3.183047 -0.000000 -0.000000
RightFoot -8.135975 -8.189587 -8.508673
RightToeBase -2.960226 -0.000000 0.000000
LeftUpLeg -14.453165 4.791851 7.441185
LeftLeg 33.536499 -0.000000 -0.000000
LeftFoot -27.125878 7.196236 -14.497047
LeftToeBase 2.613257 -0.000000 -0.000000
Spine -7.122556 -2.334575 0.260151
RightShoulder -20.175920 -22.222589 -3.882847
RightArm 21.193611 -12.182723 81.150514
RightForeArm -5.564230 -0.000000 19.454848
RightHand 8.752861 -0.000000 1.534640
RightHandThumb1 -24.326973 -0.000000 -32.862282
LeftShoulder -20.467538 5.247802 33.121155
LeftArm 4.620806 -40.357432 -48.077522
LeftForeArm 2.695673 -0.000000 43.264074
LeftHand -0.223802 -0.000000 36.195945
LeftHandThumb1 -26.253704 0.000000 33.147579
Head 6.533578 7.219561 14.554524
3969
root -7.018355 32.496055 -3.508805 4.960715 -9.939251 -4.113793
RightUpLeg -2.633482 13.501950 11.814232
RightLeg 3.165724 -0.000000 -0.000000
RightFoot -8.141432 -8.138398 -8.452588
RightToeBase -2.818447 -0.000000 0.000000
LeftUpLeg -14.433631 4.782420 7.436641
LeftLeg 33.534753 -0.000000 -0.000000
LeftFoot -27.114993 7.211943 -14.517511
LeftToeBase 2.702393 -0.000000 -0.000000
Spine -7.125088 -2.326718 0.274261
RightShoulder -20.191524 -22.239086 -3.857733
RightArm 21.228476 -12.174629 81.100589
RightForeArm -5.578765 -0.000000 19.517091
RightHand 8.748626 -0.000000 1.505244
RightHandThumb1 -24.326973 -0.000000 -32.862282
LeftShoulder -20.472929 5.261457 33.122965
LeftArm 4.607386 -40.345773 -48.088217
LeftForeArm 2.684162 -0.000000 43.267892
LeftHand -0.237561 -0.000000 36.240961
LeftHandThumb1 -26.253704 0.000000 33.147579
Head 6.572941 7.207542 14.520504
3970
root -7.015497 32.495110 -3.504038 4.951608 -9.936297 -4.118594
RightUpLeg -2.611091 13.495150 11.815434
RightLeg 3.149278 -0.000000 -0.000000
RightFoot -8.134259 -8.126494 -8.434958
RightToeBase -2.626763 -0.000000 0.000000
LeftUpLeg -14.428254 4.758959 7.435823
LeftLeg 33.543736 -0.000000 -0.000000
LeftFoot -27.102656 7.255170 -14.538479
LeftToeBase 2.907547 -0.000000 -0.000000
Spine -7.134392 -2.331473 0.300772
RightShoulder -20.189549 -22.234758 -3.862361
RightArm 21.243487 -12.156362 81.074419
RightForeArm -5.602324 -0.000000 19.562078
RightHand 8.756649 0.000000 1.547042
RightHandThumb1 -24.326973 -0.000000 -32.862282
LeftShoulder -20.476377 5.281924 33.098654
LeftArm 4.600943 -40.356719 -48.077993
LeftForeArm 2.661646 -0.000000 43.260687
LeftHand -0.247594 -0.000000 36.263703
LeftHandThumb1 -26.253704 0.000000 33.147579
Head 6.617717 7.164211 14.503488
3971
root -7.012618 32.494007 -3.497845 4.928467 -9.936650 -4.123950
RightUpLeg -2.569936 13.492681 11.819486
RightLeg 3.130991 -0.000000 -0.000000
RightFoot -8.119292 -8.129650 -8.445950
RightToeBase -2.565049 -0.000000 0.000000
LeftUpLeg -14.403700 4.747553 7.433737
LeftLeg 33.559016 -0.000000 -0.000000
LeftFoot -27.087790 7.359253 -14.466547
LeftToeBase 3.082737 -0.000000 -0.000000
Spine -7.128013 -2.324497 0.320931
RightShoulder -20.198344 -22.247861 -3.844842
RightArm 21.284047 -12.157987 81.017355
RightForeArm -5.635400 -0.000000 19.603835
RightHand 8.788193 -0.000000 1.559787
RightHandThumb1 -24.326973 -0.000000 -32.862282
LeftShoulder -20.470928 5.296779 33.096278
LeftArm 4.576385 -40.376715 -48.088662
LeftForeArm 2.636909 -0.000000 43.282093
LeftHand -0.182741 -0.000000 36.117453
LeftHandThumb1 -26.253704 0.000000 33.147579
Head 6.662436 7.159842 14.473570
3972
root -7.010629 32.492867 -3.491567 4.907055 -9.928954 -4.127262
RightUpLeg -2.527762 13.467521 11.826335
RightLeg 3.103821 -0.000000 -0.000000
RightFoot -8.125497 -8.112476 -8.435633
RightToeBase -2.360384 -0.000000 0.000000
LeftUpLeg -14.383331 4.719309 7.432708
LeftLeg 33.558074 -0.000000 -0.000000
LeftFoot -27.120508 7.313778 -14.581570
LeftToeBase 3.561785 -0.000000 -0.000000
Spine -7.126573 -2.319775 0.332950
RightShoulder -20.205824 -22.266591 -3.830062
RightArm 21.307017 -12.143736 80.985756
RightForeArm -5.662144 -0.000000 19.669580
RightHand 8.783734 0.000000 1.521703
RightHandThumb1 -24.326973 -0.000000 -32.862282
LeftShoulder -20.452442 5.296911 33.103119
LeftArm 4.536806 -40.368150 -48.070549
LeftForeArm 2.648079 -0.000000 43.281416
LeftHand -0.278832 -0.000000 36.301575
LeftHandThumb1 -26.253704 0.000000 33.147579
Head 6.708373 7.140680 14.460390
3973
root -7.007676 32.491550 -3.484126 4.872517 -9.926321 -4.130913
RightUpLeg -2.464073 13.466059 11.832658
RightLeg 3.063648 -0.000000 -0.000000
RightFoot -8.131836 -8.105135 -8.380814
RightToeBase -2.153740 -0.000000 0.000000
LeftUpLeg -14.340549 4.671751 7.434022
LeftLeg 33.561673 -0.000000 -0.000000
LeftFoot -27.105830 7.399594 -14.596289
LeftToeBase 3.980849 -0.000000 -0.000000
Spine -7.111635 -2.316862 0.347699
RightShoulder -20.201483 -22.284247 -3.818108
RightArm 21.332647 -12.162582 80.930443
RightForeArm -5.634671 0.000000 19.728583
RightHand 8.789938 -0.000000 1.474454
RightHandThumb1 -24.326973 -0.000000 -32.862282
LeftShoulder -20.452710 5.313597 33.102495
LeftArm 4.532553 -40.378330 -48.081793
LeftForeArm 2.632083 -0.000000 43.278326
LeftHand -0.259694 -0.000000 36.303815
LeftHandThumb1 -26.253704 0.000000 33.147579
Head 6.762676 7.167997 14.426646
3974
root -7.004445 32.490337 -3.478109 4.846545 -9.927672 -4.135675
RightUpLeg -2.424508 13.459223 11.838239
RightLeg 3.056555 -0.000000 -0.000000
RightFoot -8.132358 -8.102373 -8.413651
RightToeBase -1.946962 -0.000000 0.000000
LeftUpLeg -14.315227 4.648140 7.435166
LeftLeg 33.557643 -0.000000 -0.000000
LeftFoot -27.116040 7.342353 -14.723884
LeftToeBase 4.186253 -0.000000 -0.000000
Spine -7.099804 -2.295233 0.363466
RightShoulder -20.205984 -22.253987 -3.814817
RightArm 21.297657 -12.122399 80.920227
RightForeArm -5.707946 0.000000 19.804358
RightHand 8.740742 -0.000000 1.435954
RightHandThumb1 -24.326973 -0.000000 -32.862282
LeftShoulder -20.436374 5.310640 33.098839
LeftArm 4.507244 -40.385167 -48.071705
LeftForeArm 2.640651 0.000000 43.279966
LeftHand -0.269188 -0.000000 36.324512
LeftHandThumb1 -26.253704 0.000000 33.147579
Head 6.797112 7.118397 14.434657
